# xmcd CD database file
#
# Track frame offsets:
#	150
#	11190
#	22447
#	42787
#	58555
#	77862
#	89847
#	101555
#	114847
#	128475
#	148990
#	166027
#	183152
#	201820
#	217084
#
# Disc length: 3153 seconds
#
# Revision: 2
# Processed by: cddbd v1.5.1PL2 Copyright (c) Steve Scherf et al.
# Submitted via: CDex 1.51
#
DISCID=d40c4f0f
DTITLE=Various Artist - Panasonic Hits From The Country Hall Of Fame
DYEAR=1900
DGENRE=Pop
TTITLE0=Conway Twitty - Hello Darlin'
TTITLE1=David Lee Murphy - Out With A Bang
TTITLE2=Frazier River Band - Everything About You
TTITLE3=George Jones - I Don't Need Your Rockin' Chair
TTITLE4=Joe Ely - All Just To Get You
TTITLE5=Loretta Lynn and Conway Twitty - After The Fire Is Gone
TTITLE6=Mark Chesnutt - Going Through The Big D
TTITLE7=Marty Stuart - If I Ain't Got You
TTITLE8=Patsy Cline - She's Got You
TTITLE9=Reba McIntyre - On My Own
TTITLE10=Rodney Crowell - Please Remember Me
TTITLE11=The Mavericks - Here Comes The Rain
TTITLE12=Tracy Byrd - The Keeper Of The Stars
TTITLE13=Trisha Yearwood - Thinkin' About You
TTITLE14=Trisha Yearwood - Walk Away Joe
EXTD=
EXTT0=Conway Twitty
EXTT1=David Lee Murphy
EXTT2=Frazier River Band
EXTT3=George Jones
EXTT4=Joe Ely
EXTT5=Loretta Lynn and Conway Twitty
EXTT6=Mark Chesnutt
EXTT7=Marty Stuart
EXTT8=Patsy Cline
EXTT9=Reba McEntire
EXTT10=Rodney Crowell
EXTT11=The Mavericks
EXTT12=Tracy Byrd
EXTT13=Trisha Yearwood
EXTT14=Trisha Yearwood
PLAYORDER=
